<svg width="107" height="100" viewBox="0 0 107 100" fill="none" xmlns="http://www.w3.org/2000/svg">
<g clip-path="url(#clip0_12_142)">
<rect x="33.5" y="30" width="40" height="40" rx="20" fill="#65558F"/>
<path d="M50.75 60L50.35 56.8C50.1333 56.7167 49.9292 56.6167 49.7375 56.5C49.5458 56.3833 49.3583 56.2583 49.175 56.125L46.2 57.375L43.45 52.625L46.025 50.675C46.0083 50.5583 46 50.4458 46 50.3375V49.6625C46 49.5542 46.0083 49.4417 46.025 49.325L43.45 47.375L46.2 42.625L49.175 43.875C49.3583 43.7417 49.55 43.6167 49.75 43.5C49.95 43.3833 50.15 43.2833 50.35 43.2L50.75 40H56.25L56.65 43.2C56.8667 43.2833 57.0708 43.3833 57.2625 43.5C57.4542 43.6167 57.6417 43.7417 57.825 43.875L60.8 42.625L63.55 47.375L60.975 49.325C60.9917 49.4417 61 49.5542 61 49.6625V50.3375C61 50.4458 60.9833 50.5583 60.95 50.675L63.525 52.625L60.775 57.375L57.825 56.125C57.6417 56.2583 57.45 56.3833 57.25 56.5C57.05 56.6167 56.85 56.7167 56.65 56.8L56.25 60H50.75ZM52.5 58H54.475L54.825 55.35C55.3417 55.2167 55.8208 55.0208 56.2625 54.7625C56.7042 54.5042 57.1083 54.1917 57.475 53.825L59.95 54.85L60.925 53.15L58.775 51.525C58.8583 51.2917 58.9167 51.0458 58.95 50.7875C58.9833 50.5292 59 50.2667 59 50C59 49.7333 58.9833 49.4708 58.95 49.2125C58.9167 48.9542 58.8583 48.7083 58.775 48.475L60.925 46.85L59.95 45.15L57.475 46.2C57.1083 45.8167 56.7042 45.4958 56.2625 45.2375C55.8208 44.9792 55.3417 44.7833 54.825 44.65L54.5 42H52.525L52.175 44.65C51.6583 44.7833 51.1792 44.9792 50.7375 45.2375C50.2958 45.4958 49.8917 45.8083 49.525 46.175L47.05 45.15L46.075 46.85L48.225 48.45C48.1417 48.7 48.0833 48.95 48.05 49.2C48.0167 49.45 48 49.7167 48 50C48 50.2667 48.0167 50.525 48.05 50.775C48.0833 51.025 48.1417 51.275 48.225 51.525L46.075 53.15L47.05 54.85L49.525 53.8C49.8917 54.1833 50.2958 54.5042 50.7375 54.7625C51.1792 55.0208 51.6583 55.2167 52.175 55.35L52.5 58ZM53.55 53.5C54.5167 53.5 55.3417 53.1583 56.025 52.475C56.7083 51.7917 57.05 50.9667 57.05 50C57.05 49.0333 56.7083 48.2083 56.025 47.525C55.3417 46.8417 54.5167 46.5 53.55 46.5C52.5667 46.5 51.7375 46.8417 51.0625 47.525C50.3875 48.2083 50.05 49.0333 50.05 50C50.05 50.9667 50.3875 51.7917 51.0625 52.475C51.7375 53.1583 52.5667 53.5 53.55 53.5Z" fill="white"/>
</g>
<defs>
<clipPath id="clip0_12_142">
<rect x="33.5" y="30" width="40" height="40" rx="20" fill="white"/>
</clipPath>
</defs>
</svg>
