<svg width="75" height="75" viewBox="0 0 75 75" fill="none" xmlns="http://www.w3.org/2000/svg">
<path d="M28.125 51.5625C25.9375 51.5625 24.0885 50.8073 22.5781 49.2969C21.0677 47.7865 20.3125 45.9375 20.3125 43.75C20.3125 41.5625 21.0677 39.7135 22.5781 38.2031C24.0885 36.6927 25.9375 35.9375 28.125 35.9375C30.3125 35.9375 32.1615 36.6927 33.6719 38.2031C35.1823 39.7135 35.9375 41.5625 35.9375 43.75C35.9375 45.9375 35.1823 47.7865 33.6719 49.2969C32.1615 50.8073 30.3125 51.5625 28.125 51.5625ZM15.625 68.75C13.9062 68.75 12.4349 68.138 11.2109 66.9141C9.98698 65.6901 9.375 64.2188 9.375 62.5V18.75C9.375 17.0312 9.98698 15.5599 11.2109 14.3359C12.4349 13.112 13.9062 12.5 15.625 12.5H18.75V6.25H25V12.5H50V6.25H56.25V12.5H59.375C61.0938 12.5 62.5651 13.112 63.7891 14.3359C65.013 15.5599 65.625 17.0312 65.625 18.75V62.5C65.625 64.2188 65.013 65.6901 63.7891 66.9141C62.5651 68.138 61.0938 68.75 59.375 68.75H15.625ZM15.625 62.5H59.375V31.25H15.625V62.5Z" fill="#4F378A"/>
</svg>
